<svg xmlns="http://www.w3.org/2000/svg" version="1.1" xmlns:xlink="http://www.w3.org/1999/xlink" xmlns:svgjs="http://svgjs.dev/svgjs" width="1000" height="1000" viewBox="0 0 1000 1000"><rect width="1000" height="1000" fill="#fce44d"></rect><g transform="matrix(0.7,0,0,0.7,149.95564667782998,116.36089068825908)"><svg viewBox="0 0 225 247" data-background-color="#fce44d" preserveAspectRatio="xMidYMid meet" height="1097" width="1000" xmlns="http://www.w3.org/2000/svg" xmlns:xlink="http://www.w3.org/1999/xlink"><g id="tight-bounds" transform="matrix(1,0,0,1,0.01425655216135624,-0.09999999999999432)"><svg viewBox="0 0 224.97148702285546 247.2" height="247.2" width="224.97148702285546"><g><svg></svg></g><g><svg viewBox="0 0 224.97148702285546 247.2" height="247.2" width="224.97148702285546"><g transform="matrix(1,0,0,1,0,47.215199999999996)"><svg viewBox="0 0 224.97148702285546 152.7696" height="152.7696" width="224.97148702285546"><g><svg viewBox="0 0 244.43135999999998 165.9840613084553" height="152.7696" width="224.97148702285546"><g><svg viewBox="0 0 244.43135999999998 165.9840613084553" height="165.9840613084553" width="244.43135999999998"><g id="textblocktransform"><svg viewBox="0 0 244.43135999999998 165.9840613084553" height="165.9840613084553" width="244.43135999999998" id="textblock"><g><svg viewBox="0 0 244.43135999999998 116.63737095435683" height="116.63737095435683" width="244.43135999999998"><g transform="matrix(1,0,0,1,0,0)"><svg width="244.43135999999998" viewBox="3.700000047683716 -39.95000076293945 84.35000610351562 40.25" height="116.63737095435683" data-palette-color="#374151"><path d="M34.65-39.95L34.65-39.95Q36.25-39.95 38.15-39.2L38.15-39.2Q39.9-38.5 39.9-36.55L39.9-36.55 39.9-2.1Q39.9 0.3 36.95 0.3L36.95 0.3Q34 0.3 34-2.1L34-2.1 34-27.8 32.55-27.95 30.55-21.45 24.55-1.45Q24 0.3 21.85 0.25L21.85 0.25Q20.9 0.2 20.2-0.25 19.5-0.7 19.25-1.55L19.25-1.55 15.65-13.2Q14.55-16.65 13.45-20.23 12.35-23.8 11.05-28.15L11.05-28.15 9.6-27.95 9.6-2.1Q9.6 0.3 6.65 0.3L6.65 0.3Q3.7 0.3 3.7-2.1L3.7-2.1 3.7-36.55Q3.7-38.45 5.45-39.2L5.45-39.2Q7.3-39.95 9-39.9L9-39.9Q9.75-39.9 10.55-39.7 11.35-39.5 12.05-39.13 12.75-38.75 13.3-38.18 13.85-37.6 14.15-36.85L14.15-36.85 22-10.1Q22.85-13.05 23.8-16.5 24.75-19.95 25.75-23.5 26.75-27.05 27.73-30.53 28.7-34 29.55-37L29.55-37Q29.85-37.7 30.4-38.25 30.95-38.8 31.65-39.18 32.35-39.55 33.13-39.75 33.9-39.95 34.65-39.95ZM53.1-37.55L53.1-2.1Q53.1 0.3 50.1 0.3L50.1 0.3Q47.15 0.3 47.15-2.1L47.15-2.1 47.15-37.55Q47.15-39.95 50.1-39.95L50.1-39.95Q53.1-39.95 53.1-37.55L53.1-37.55ZM88.05-11.3L88.05-8Q88.05-3.95 85.34-1.95L85.34-1.95Q84.05-1 82.67-0.48 81.3 0.05 80 0.05L80 0.05 69.09 0.05Q67.8 0.05 66.42-0.48 65.05-1 63.75-1.95L63.75-1.95Q62.45-2.95 61.75-4.42 61.05-5.9 61.05-8L61.05-8 61.05-31.75Q61.05-33.75 61.75-35.27 62.45-36.8 63.75-37.75L63.75-37.75 63.7-37.75Q65-38.6 66.4-39.15 67.8-39.7 69.09-39.7L69.09-39.7 80-39.7Q81.3-39.7 82.7-39.15 84.09-38.6 85.4-37.75L85.4-37.75 85.34-37.75Q86.65-36.8 87.34-35.27 88.05-33.75 88.05-31.75L88.05-31.75 88.05-28.3Q88.05-25.9 85.05-25.9L85.05-25.9Q82.09-25.9 82.09-28.3L82.09-28.3 82.09-31.3Q82.09-32.55 81.34-33.6 80.59-34.65 78.75-34.65L78.75-34.65 70.34-34.65Q68.5-34.65 67.75-33.6 67-32.55 67-31.3L67-31.3 67-8.4Q67-7.1 67.75-6.05 68.5-5 70.34-5L70.34-5 78.75-5Q80.59-5 81.34-6.05 82.09-7.1 82.09-8.4L82.09-8.4 82.09-11.3Q82.09-13.65 85.05-13.65L85.05-13.65Q88.05-13.65 88.05-11.3L88.05-11.3Z" opacity="1" transform="matrix(1,0,0,1,0,0)" fill="#374151" class="undefined-text-0" data-fill-palette-color="primary" id="text-0"></path></svg></g></svg></g><g transform="matrix(1,0,0,1,46.68638976,144.17265493977757)"><svg viewBox="0 0 151.05858048 21.81140636867773" height="21.81140636867773" width="151.05858048"><g transform="matrix(1,0,0,1,0,0)"><svg width="151.05858048" viewBox="2.049999952316284 -40.95000076293945 349.3600158691406 50.45000076293945" height="21.81140636867773" data-palette-color="#374151"><path d="M13.25 0.55L13.25 0.55Q9.6 0.55 7.15-0.88 4.7-2.3 3.45-5.05 2.2-7.8 2.05-11.8L2.05-11.8 8.4-13.05Q8.5-10.7 8.97-8.9 9.45-7.1 10.43-6.13 11.4-5.15 13-5.15L13-5.15Q14.8-5.15 15.55-6.23 16.3-7.3 16.3-8.95L16.3-8.95Q16.3-11.6 15.1-13.3 13.9-15 11.9-16.7L11.9-16.7 6.8-21.2Q4.65-23.05 3.38-25.33 2.1-27.6 2.1-30.95L2.1-30.95Q2.1-35.75 4.9-38.35 7.7-40.95 12.55-40.95L12.55-40.95Q15.4-40.95 17.3-40.08 19.2-39.2 20.33-37.65 21.45-36.1 22-34.13 22.55-32.15 22.7-29.95L22.7-29.95 16.4-28.85Q16.3-30.75 15.98-32.25 15.65-33.75 14.83-34.6 14-35.45 12.4-35.45L12.4-35.45Q10.75-35.45 9.88-34.38 9-33.3 9-31.7L9-31.7Q9-29.65 9.85-28.33 10.7-27 12.3-25.6L12.3-25.6 17.35-21.15Q19.85-19.05 21.63-16.23 23.4-13.4 23.4-9.4L23.4-9.4Q23.4-6.5 22.13-4.25 20.85-2 18.57-0.73 16.3 0.55 13.25 0.55ZM36.05 0.45L36.05 0.45Q32.8 0.45 30.75-0.78 28.7-2 27.72-4.38 26.75-6.75 26.75-10.1L26.75-10.1 26.75-18.8Q26.75-22.25 27.72-24.6 28.7-26.95 30.77-28.15 32.85-29.35 36.05-29.35L36.05-29.35Q39.5-29.35 41.42-28.05 43.35-26.75 44.17-24.28 45-21.8 45-18.25L45-18.25 45-14.15 33.5-14.15 33.5-8.45Q33.5-7.05 33.77-6.15 34.05-5.25 34.65-4.85 35.25-4.45 36.1-4.45L36.1-4.45Q37-4.45 37.55-4.88 38.1-5.3 38.35-6.13 38.6-6.95 38.6-8.2L38.6-8.2 38.6-10.6 44.95-10.6 44.95-8.65Q44.95-4.25 42.75-1.9 40.55 0.45 36.05 0.45ZM33.5-19.5L33.5-17.5 38.6-17.5 38.6-20.25Q38.6-21.75 38.35-22.68 38.1-23.6 37.55-24.03 37-24.45 36-24.45L36-24.45Q35.1-24.45 34.55-24 34-23.55 33.75-22.5 33.5-21.45 33.5-19.5L33.5-19.5ZM56.55 0L49.75 0 49.75-28.9 56.55-28.9 56.55-24.45Q58.05-27 59.55-28.13 61.05-29.25 62.85-29.25L62.85-29.25Q63.15-29.25 63.37-29.23 63.6-29.2 63.9-29.15L63.9-29.15 63.9-22.1Q63.3-22.35 62.57-22.53 61.85-22.7 61.1-22.7L61.1-22.7Q59.75-22.7 58.65-22.05 57.55-21.4 56.55-19.9L56.55-19.9 56.55 0ZM78.54 0L70.99 0 65.24-28.9 71.89-28.9 74.84-8.15 77.74-28.9 84.29-28.9 78.54 0ZM94.44 0L87.64 0 87.64-28.9 94.44-28.9 94.44 0ZM94.44-33.5L87.64-33.5 87.64-39.15 94.44-39.15 94.44-33.5ZM108.54 0.45L108.54 0.45Q105.19 0.45 103.16-0.83 101.14-2.1 100.21-4.48 99.29-6.85 99.29-10.1L99.29-10.1 99.29-18.8Q99.29-22.15 100.21-24.5 101.14-26.85 103.19-28.1 105.24-29.35 108.54-29.35L108.54-29.35Q111.64-29.35 113.61-28.38 115.59-27.4 116.49-25.43 117.39-23.45 117.39-20.45L117.39-20.45 117.39-18.05 110.99-18.05 110.99-20.6Q110.99-22.1 110.76-22.98 110.54-23.85 109.99-24.23 109.44-24.6 108.54-24.6L108.54-24.6Q107.64-24.6 107.09-24.13 106.54-23.65 106.31-22.6 106.09-21.55 106.09-19.7L106.09-19.7 106.09-9.1Q106.09-6.3 106.69-5.33 107.29-4.35 108.59-4.35L108.59-4.35Q109.59-4.35 110.11-4.8 110.64-5.25 110.81-6.13 110.99-7 110.99-8.25L110.99-8.25 110.99-11.35 117.39-11.35 117.39-8.6Q117.39-5.7 116.46-3.65 115.54-1.6 113.56-0.58 111.59 0.45 108.54 0.45ZM128.84 0L122.04 0 122.04-28.9 128.84-28.9 128.84 0ZM128.84-33.5L122.04-33.5 122.04-39.15 128.84-39.15 128.84-33.5ZM142.98 0.45L142.98 0.45Q139.83 0.45 137.78-0.73 135.73-1.9 134.71-4.15 133.68-6.4 133.68-9.6L133.68-9.6 133.68-19.3Q133.68-22.5 134.71-24.75 135.73-27 137.78-28.18 139.83-29.35 142.98-29.35L142.98-29.35Q146.13-29.35 148.21-28.18 150.28-27 151.31-24.75 152.33-22.5 152.33-19.3L152.33-19.3 152.33-9.6Q152.33-6.4 151.31-4.15 150.28-1.9 148.21-0.73 146.13 0.45 142.98 0.45ZM143.03-4.25L143.03-4.25Q144.18-4.25 144.73-4.9 145.28-5.55 145.43-6.68 145.58-7.8 145.58-9.15L145.58-9.15 145.58-19.75Q145.58-21.1 145.43-22.2 145.28-23.3 144.73-23.98 144.18-24.65 143.03-24.65L143.03-24.65Q141.88-24.65 141.33-23.98 140.78-23.3 140.61-22.2 140.43-21.1 140.43-19.75L140.43-19.75 140.43-9.15Q140.43-7.8 140.61-6.68 140.78-5.55 141.33-4.9 141.88-4.25 143.03-4.25ZM164.83 0.45L164.83 0.45Q161.18 0.45 158.83-1.5 156.48-3.45 155.48-7.2L155.48-7.2 160.53-9.15Q161.13-6.8 162.13-5.55 163.13-4.3 164.73-4.3L164.73-4.3Q165.93-4.3 166.53-4.9 167.13-5.5 167.13-6.55L167.13-6.55Q167.13-7.75 166.41-8.72 165.68-9.7 163.93-11.15L163.93-11.15 160.43-14.1Q158.53-15.75 157.36-17.48 156.18-19.2 156.18-21.8L156.18-21.8Q156.18-24.15 157.26-25.83 158.33-27.5 160.21-28.43 162.08-29.35 164.38-29.35L164.38-29.35Q167.88-29.35 170.01-27.28 172.13-25.2 172.73-21.85L172.73-21.85 168.28-19.95Q168.03-21.15 167.56-22.18 167.08-23.2 166.33-23.85 165.58-24.5 164.58-24.5L164.58-24.5Q163.53-24.5 162.91-23.85 162.28-23.2 162.28-22.2L162.28-22.2Q162.28-21.35 163.01-20.45 163.73-19.55 165.08-18.4L165.08-18.4 168.63-15.2Q169.78-14.2 170.83-13.05 171.88-11.9 172.58-10.48 173.28-9.05 173.28-7.2L173.28-7.2Q173.28-4.7 172.16-3 171.03-1.3 169.11-0.43 167.18 0.45 164.83 0.45ZM195.63 0.45L195.63 0.45Q192.18 0.45 190.4-2 188.63-4.45 188.63-9.85L188.63-9.85 188.63-18.7Q188.63-21.7 189.3-24.1 189.98-26.5 191.48-27.93 192.98-29.35 195.53-29.35L195.53-29.35Q197.08-29.35 198.4-28.73 199.73-28.1 200.83-27.1L200.83-27.1 200.83-40.5 207.63-40.5 207.63 0 200.83 0 200.83-2.05Q199.68-0.9 198.38-0.23 197.08 0.45 195.63 0.45ZM198.13-4.25L198.13-4.25Q198.68-4.25 199.38-4.5 200.08-4.75 200.83-5.2L200.83-5.2 200.83-23.75Q200.23-24.15 199.53-24.43 198.83-24.7 198.08-24.7L198.08-24.7Q196.63-24.7 196.05-23.38 195.48-22.05 195.48-20.15L195.48-20.15 195.48-9.35Q195.48-7.9 195.68-6.75 195.88-5.6 196.45-4.93 197.03-4.25 198.13-4.25ZM219.77 0L212.97 0 212.97-28.9 219.77-28.9 219.77 0ZM219.77-33.5L212.97-33.5 212.97-39.15 219.77-39.15 219.77-33.5ZM233.67 9.5L233.67 9.5Q230.72 9.5 228.47 8.9 226.22 8.3 224.97 7.05 223.72 5.8 223.72 3.8L223.72 3.8Q223.72 2.45 224.3 1.38 224.87 0.3 225.87-0.5 226.87-1.3 228.02-1.85L228.02-1.85Q226.37-2.3 225.5-3.3 224.62-4.3 224.62-5.7L224.62-5.7Q224.62-7.4 225.47-8.6 226.32-9.8 227.82-11.15L227.82-11.15Q226.27-12.4 225.5-14.28 224.72-16.15 224.72-19.2L224.72-19.2Q224.72-22.5 225.8-24.78 226.87-27.05 228.95-28.2 231.02-29.35 234.02-29.35L234.02-29.35Q236.32-29.35 237.87-28.68 239.42-28 240.42-26.65L240.42-26.65Q240.82-27.25 241.82-28.15 242.82-29.05 244.12-29.65L244.12-29.65 245.02-30.05 246.67-26.4Q246.12-26.25 245.2-25.9 244.27-25.55 243.37-25.15 242.47-24.75 241.97-24.45L241.97-24.45Q242.42-23.45 242.72-21.95 243.02-20.45 243.02-19.1L243.02-19.1Q243.02-16.05 242.07-13.8 241.12-11.55 239.15-10.33 237.17-9.1 234.02-9.1L234.02-9.1Q232.97-9.1 231.97-9.28 230.97-9.45 230.12-9.7L230.12-9.7Q229.82-9.25 229.55-8.75 229.27-8.25 229.27-7.7L229.27-7.7Q229.27-7.15 229.87-6.8 230.47-6.45 231.87-6.3L231.87-6.3 237.97-5.7Q241.52-5.35 243.22-3.48 244.92-1.6 244.92 1.6L244.92 1.6Q244.92 4.2 243.75 5.95 242.57 7.7 240.1 8.6 237.62 9.5 233.67 9.5ZM234.42 4.4L234.42 4.4Q237.22 4.4 238.62 3.85 240.02 3.3 240.02 1.85L240.02 1.85Q240.02 1.05 239.67 0.55 239.32 0.05 238.42-0.28 237.52-0.6 235.87-0.75L235.87-0.75 230.92-1.2Q230.37-0.75 229.95-0.28 229.52 0.2 229.27 0.75 229.02 1.3 229.02 1.9L229.02 1.9Q229.02 3.15 230.22 3.78 231.42 4.4 234.42 4.4ZM234.02-13.45L234.02-13.45Q234.92-13.45 235.47-13.78 236.02-14.1 236.32-14.83 236.62-15.55 236.72-16.65 236.82-17.75 236.82-19.2L236.82-19.2Q236.82-20.65 236.72-21.75 236.62-22.85 236.35-23.6 236.07-24.35 235.52-24.7 234.97-25.05 234.02-25.05L234.02-25.05Q233.12-25.05 232.55-24.7 231.97-24.35 231.7-23.63 231.42-22.9 231.3-21.8 231.17-20.7 231.17-19.2L231.17-19.2Q231.17-17.8 231.27-16.73 231.37-15.65 231.67-14.93 231.97-14.2 232.55-13.83 233.12-13.45 234.02-13.45ZM255.62 0L248.82 0 248.82-28.9 255.62-28.9 255.62 0ZM255.62-33.5L248.82-33.5 248.82-39.15 255.62-39.15 255.62-33.5ZM269.37 0.35L269.37 0.35Q266.62 0.35 265.04-0.55 263.47-1.45 262.81-3.15 262.17-4.85 262.17-7.2L262.17-7.2 262.17-24.4 259.27-24.4 259.27-28.9 262.17-28.9 262.17-37.55 269.02-37.55 269.02-28.9 273.42-28.9 273.42-24.4 269.02-24.4 269.02-7.8Q269.02-6.3 269.67-5.68 270.31-5.05 271.62-5.05L271.62-5.05Q272.17-5.05 272.69-5.1 273.22-5.15 273.72-5.2L273.72-5.2 273.72 0Q272.87 0.1 271.74 0.23 270.62 0.35 269.37 0.35ZM283.21 0.45L283.21 0.45Q281.26 0.45 279.86-0.58 278.46-1.6 277.71-3.18 276.96-4.75 276.96-6.45L276.96-6.45Q276.96-9.15 277.96-11 278.96-12.85 280.61-14.1 282.26-15.35 284.36-16.28 286.46-17.2 288.61-17.95L288.61-17.95 288.61-20.45Q288.61-21.7 288.44-22.55 288.26-23.4 287.79-23.85 287.31-24.3 286.31-24.3L286.31-24.3Q285.46-24.3 284.94-23.9 284.41-23.5 284.19-22.78 283.96-22.05 283.91-21.1L283.91-21.1 283.81-19.35 277.36-19.6Q277.51-24.6 279.84-26.98 282.16-29.35 286.91-29.35L286.91-29.35Q291.26-29.35 293.24-26.95 295.21-24.55 295.21-20.45L295.21-20.45 295.21-7.1Q295.21-5.5 295.29-4.2 295.36-2.9 295.49-1.85 295.61-0.8 295.71 0L295.71 0 289.61 0Q289.46-1 289.24-2.27 289.01-3.55 288.91-4.15L288.91-4.15Q288.41-2.4 287.01-0.98 285.61 0.45 283.21 0.45ZM285.71-4.6L285.71-4.6Q286.36-4.6 286.94-4.93 287.51-5.25 287.96-5.7 288.41-6.15 288.61-6.5L288.61-6.5 288.61-14.55Q287.51-13.9 286.54-13.25 285.56-12.6 284.84-11.83 284.11-11.05 283.74-10.15 283.36-9.25 283.36-8.05L283.36-8.05Q283.36-6.45 283.99-5.53 284.61-4.6 285.71-4.6ZM307.41 0L300.66 0 300.66-40.5 307.41-40.5 307.41 0ZM321.56 0.45L321.56 0.45Q318.31 0.45 316.26-0.78 314.21-2 313.23-4.38 312.26-6.75 312.26-10.1L312.26-10.1 312.26-18.8Q312.26-22.25 313.23-24.6 314.21-26.95 316.28-28.15 318.36-29.35 321.56-29.35L321.56-29.35Q325.01-29.35 326.93-28.05 328.86-26.75 329.68-24.28 330.51-21.8 330.51-18.25L330.51-18.25 330.51-14.15 319.01-14.15 319.01-8.45Q319.01-7.05 319.28-6.15 319.56-5.25 320.16-4.85 320.76-4.45 321.61-4.45L321.61-4.45Q322.51-4.45 323.06-4.88 323.61-5.3 323.86-6.13 324.11-6.95 324.11-8.2L324.11-8.2 324.11-10.6 330.46-10.6 330.46-8.65Q330.46-4.25 328.26-1.9 326.06 0.45 321.56 0.45ZM319.01-19.5L319.01-17.5 324.11-17.5 324.11-20.25Q324.11-21.75 323.86-22.68 323.61-23.6 323.06-24.03 322.51-24.45 321.51-24.45L321.51-24.45Q320.61-24.45 320.06-24 319.51-23.55 319.26-22.5 319.01-21.45 319.01-19.5L319.01-19.5ZM342.96 0.45L342.96 0.45Q339.31 0.45 336.96-1.5 334.61-3.45 333.61-7.2L333.61-7.2 338.66-9.15Q339.26-6.8 340.26-5.55 341.26-4.3 342.86-4.3L342.86-4.3Q344.06-4.3 344.66-4.9 345.26-5.5 345.26-6.55L345.26-6.55Q345.26-7.75 344.53-8.72 343.81-9.7 342.06-11.15L342.06-11.15 338.56-14.1Q336.66-15.75 335.48-17.48 334.31-19.2 334.31-21.8L334.31-21.8Q334.31-24.15 335.38-25.83 336.46-27.5 338.33-28.43 340.21-29.35 342.51-29.35L342.51-29.35Q346.01-29.35 348.13-27.28 350.26-25.2 350.86-21.85L350.86-21.85 346.41-19.95Q346.16-21.15 345.68-22.18 345.21-23.2 344.46-23.85 343.71-24.5 342.71-24.5L342.71-24.5Q341.66-24.5 341.03-23.85 340.41-23.2 340.41-22.2L340.41-22.2Q340.41-21.35 341.13-20.45 341.86-19.55 343.21-18.4L343.21-18.4 346.76-15.2Q347.91-14.2 348.96-13.05 350.01-11.9 350.71-10.48 351.41-9.05 351.41-7.2L351.41-7.2Q351.41-4.7 350.28-3 349.16-1.3 347.23-0.43 345.31 0.45 342.96 0.45Z" opacity="1" transform="matrix(1,0,0,1,0,0)" fill="#374151" class="undefined-text-1" data-fill-palette-color="secondary" id="text-1"></path></svg></g></svg></g></svg></g></svg></g><g></g></svg></g></svg></g><path d="M0 41.215L0 1 224.971 1 224.971 41.215 215.29 41.215 215.29 10.681 9.681 10.681 9.681 41.215 0 41.215M0 205.985L0 246.2 224.971 246.2 224.971 205.985 215.29 205.985 215.29 236.519 9.681 236.519 9.681 205.985 0 205.985" fill="#374151" stroke="transparent" data-fill-palette-color="primary"></path></svg></g><defs></defs></svg><rect width="224.97148702285546" height="247.2" fill="none" stroke="none" visibility="hidden"></rect></g></svg></g></svg>